<?xml version="1.0" standalone="no"?>
<!DOCTYPE svg PUBLIC "-//W3C//DTD SVG 1.1//EN" "http://www.w3.org/Graphics/SVG/1.1/DTD/svg11.dtd" >
<svg xmlns="http://www.w3.org/2000/svg">
<metadata></metadata>
<defs>
<font id="WebfontRegular" horiz-adv-x="1233" >
<font-face units-per-em="2048" ascent="1638" descent="-410" />
<missing-glyph horiz-adv-x="500" />
<glyph horiz-adv-x="0" />
<glyph horiz-adv-x="2048" />
<glyph unicode=" " />
<glyph unicode="!" d="M473 0v305h285v-305h-285zM516 1006v417h201v-417l-47 -582h-105z" />
<glyph unicode="&#x22;" d="M399 915v558h140v-558h-140zM696 915v558h138v-558h-138z" />
<glyph unicode="#" d="M106 449v147h185l57 262h-162v146h191l100 454h144l-99 -454h285l102 454h144l-97 -454h170v-146h-204l-56 -262h176v-147h-206l-97 -453h-143l96 453h-286l-101 -453h-139l96 453h-156zM434 594h289l55 264h-284z" />
<glyph unicode="$" d="M117 424v18h178v-20q0 -126 71 -203q38 -39 86.5 -60.5t110.5 -21.5v508q-204 31 -310 126t-106 249q0 167 113 271q58 54 134.5 84t168.5 30v135h105v-135q94 0 175 -32q71 -28 128 -80q53 -48 80.5 -112.5t27.5 -146.5h-178q-12 103 -71 156q-31 29 -71 45t-91 16v-450 q252 -54 349 -144t97 -260q0 -176 -114 -281t-332 -128v-181h-105v179q-228 22 -337 128t-109 310zM326 1034q0 -91 57 -143.5t180 -73.5v434q-108 0 -172.5 -60t-64.5 -157zM668 131q125 12 193.5 76.5t68.5 169.5q0 94 -60.5 151t-201.5 90v-487z" />
<glyph unicode="%" d="M33 1112q0 132 93 226t226 94q132 0 226 -94t94 -226t-93.5 -225.5t-226.5 -93.5t-226 92.5t-93 226.5zM86 561l1042 418l41 -96l-1048 -418zM168 1112q0 -78 54 -131t130 -53q74 0 129.5 54.5t55.5 129.5t-54.5 129.5t-130.5 54.5q-75 0 -129.5 -53.5t-54.5 -130.5z M561 319q0 134 92.5 227t225.5 93q131 0 226 -93.5t95 -226.5q0 -131 -94.5 -225t-226.5 -94q-134 0 -226 92t-92 227zM696 319q0 -78 52.5 -131t130.5 -53q76 0 130 54t54 130q0 75 -54 130t-130 55t-129.5 -53.5t-53.5 -131.5z" />
<glyph unicode="&#x26;" d="M96 375q0 133 67 233t224 195q-66 88 -101.5 174.5t-35.5 161.5q0 138 90 228.5t227 90.5q124 0 208.5 -89t84.5 -224q0 -104 -56 -195t-171 -172l231 -297q8 17 14.5 40.5t12 51t8 54.5t2.5 63h182q0 -94 -29 -194q-24 -92 -71 -179l246 -317h-234l-118 158 q-83 -101 -177.5 -147t-216.5 -46q-168 0 -277.5 117t-109.5 293zM272 406q0 -113 68 -184.5t176 -71.5q40 0 76 9t73 29q69 39 115 109l-299 395q-109 -66 -159 -135t-50 -151zM420 1139q0 -28 6 -55.5t20 -57.5q27 -56 86 -125q81 46 124.5 108.5t43.5 129.5 q0 70 -38 115.5t-95 45.5q-62 0 -104.5 -47t-42.5 -114z" />
<glyph unicode="'" d="M549 915v558h137v-558h-137z" />
<glyph unicode="(" d="M432 530q0 250 81 474.5t253 451.5h129q-129 -205 -197.5 -444t-68.5 -482q0 -245 68 -481t198 -444h-129q-170 224 -252 449.5t-82 475.5z" />
<glyph unicode=")" d="M340 -395q127 203 195.5 442t68.5 483q0 249 -67 485.5t-197 440.5h129q170 -226 252 -450.5t82 -475.5q0 -248 -81 -474t-253 -451h-129z" />
<glyph unicode="*" d="M211 1065l53 158l281 -103v301h141v-301l279 103l55 -158l-297 -74l207 -250l-137 -98l-179 266l-174 -262l-139 94l205 250z" />
<glyph unicode="+" d="M139 659v142h406v444h143v-444h404v-142h-404v-444h-143v444h-406z" />
<glyph unicode="," d="M426 -274q99 12 142.5 66t43.5 169v39h-137v307h283v-330q0 -183 -85 -283q-44 -52 -105 -80t-142 -28v140z" />
<glyph unicode="-" d="M369 469v162h495v-162h-495z" />
<glyph unicode="." d="M475 0v305h283v-305h-283z" />
<glyph unicode="/" d="M297 -190l494 1650h143l-496 -1650h-141z" />
<glyph unicode="0" d="M123 694q0 360 126 549t367 189q243 0 367.5 -187t124.5 -551t-124 -549.5t-368 -185.5q-240 0 -366.5 186.5t-126.5 548.5zM319 694q0 -293 72.5 -430t224.5 -137t223.5 135.5t71.5 431.5q0 298 -70 433t-225 135q-154 0 -225.5 -136t-71.5 -432z" />
<glyph unicode="1" d="M248 1012v145q91 0 158 17t114 50q87 64 107 208h139v-1432h-186v1012h-332z" />
<glyph unicode="2" d="M117 0v6q0 211 97 351t355 282l121 66q108 59 158.5 132.5t50.5 172.5q0 111 -78 181.5t-207 70.5t-203.5 -88t-74.5 -242v-17h-186v29q0 225 128 356.5t347 131.5q210 0 339.5 -117.5t129.5 -306.5q0 -148 -75 -257t-233 -192l-120 -61q-173 -90 -246 -161t-98 -161h772 v-176h-977z" />
<glyph unicode="3" d="M100 432v14h189q0 -74 20.5 -132t61.5 -101q80 -82 223 -82q139 0 220 75t81 206q0 118 -79.5 185t-223.5 67l-42 -1l-58 -3v161h19.5t22.5 -2h37q138 0 204.5 54.5t66.5 166.5q0 108 -64.5 166t-185.5 58q-136 0 -206.5 -77.5t-70.5 -225.5h-182v14q0 209 121.5 333 t327.5 124q218 0 338 -101t120 -282q0 -102 -45.5 -175.5t-134.5 -111.5q115 -42 174.5 -131t59.5 -219q0 -204 -140.5 -328.5t-371.5 -124.5q-219 0 -350.5 129t-131.5 344z" />
<glyph unicode="4" d="M104 352v180l623 859h186v-875h203v-164h-203v-352h-184v352h-625zM276 516h453v637z" />
<glyph unicode="5" d="M109 371h190q17 -112 92.5 -174t192.5 -62q141 0 229 87t88 229q0 145 -86 231t-231 86q-81 0 -150 -33t-121 -98h-163l112 754h760v-168h-623l-57 -383q49 43 119 67.5t153 24.5q219 0 352.5 -129.5t133.5 -341.5q0 -224 -142 -363t-368 -139q-202 0 -334 113 q-69 59 -106 131q-41 79 -41 168z" />
<glyph unicode="6" d="M121 631q0 381 141 591t397 210q202 0 320 -103q62 -54 95.5 -126t33.5 -165h-188q-11 111 -77.5 169.5t-180.5 58.5q-156 0 -239 -128q-44 -68 -69 -160q-28 -103 -28 -228q29 37 66 67t81 50t90.5 30t102.5 10q201 0 327.5 -129.5t126.5 -341.5t-133 -344.5 t-350 -132.5q-249 0 -383 173q-66 86 -99.5 211t-33.5 288zM344 432q0 -141 78 -226t213 -85q128 0 207.5 87t79.5 226t-77 222t-202 83q-139 0 -219 -82t-80 -225z" />
<glyph unicode="7" d="M137 1204v187h975v-170q-241 -262 -384.5 -566t-188.5 -655h-207q45 343 188 638.5t395 565.5h-778z" />
<glyph unicode="8" d="M127 408q0 133 59.5 223.5t175.5 134.5q-93 42 -140.5 116.5t-47.5 182.5q0 162 122.5 264.5t319.5 102.5t319 -102t122 -265q0 -109 -45 -182t-142 -117q116 -43 176 -134t60 -224q0 -204 -133 -326.5t-357 -122.5q-226 0 -357.5 122t-131.5 327zM324 412 q0 -128 78 -204.5t214 -76.5q134 0 213.5 75.5t79.5 205.5q0 119 -78.5 190.5t-214.5 71.5t-214 -70t-78 -192zM369 1049q0 -101 67.5 -163.5t179.5 -62.5q114 0 181 62t67 164q0 101 -66 160q-33 29 -78 44t-104 15q-58 0 -102 -14t-79 -45q-66 -57 -66 -160z" />
<glyph unicode="9" d="M113 954q0 213 134 345.5t349 132.5q250 0 381 -173q66 -86 99.5 -211t33.5 -288q0 -383 -141.5 -592t-401.5 -209q-202 0 -322 107t-120 286h188q0 -52 18.5 -93.5t53.5 -73.5q68 -60 184 -60q155 0 239 127q44 68 70.5 165.5t26.5 223.5q-60 -78 -146 -118 q-44 -20 -90.5 -30t-101.5 -10q-200 0 -327 129t-127 342zM311 956q0 -138 76.5 -220.5t202.5 -82.5q139 0 219 81.5t80 223.5q0 143 -79.5 227.5t-213.5 84.5q-127 0 -206 -86.5t-79 -227.5z" />
<glyph unicode=":" d="M475 0v305h283v-305h-283zM475 795v305h283v-305h-283z" />
<glyph unicode=";" d="M426 -274q99 12 142.5 66t43.5 169v39h-137v307h283v-330q0 -183 -85 -283q-44 -52 -105 -80t-142 -28v140zM475 795v305h283v-305h-283z" />
<glyph unicode="&#x3c;" d="M139 666v129l953 436v-162l-754 -340l754 -336v-164z" />
<glyph unicode="=" d="M139 459v139h953v-139h-953zM139 854v141h953v-141h-953z" />
<glyph unicode="&#x3e;" d="M139 229v164l756 336l-756 340v162l953 -436v-129z" />
<glyph unicode="?" d="M176 1010v24q0 202 119 314q61 56 144.5 84t193.5 28q190 0 307 -99t117 -259q0 -44 -9 -84t-29 -79q-36 -74 -114 -142l-84 -74q-79 -70 -104 -122t-25 -130v-29q0 -12 2 -18h-178l-1 26l-1 25q0 96 36.5 173t121.5 155l78 71q58 54 85 105.5t27 112.5q0 95 -63.5 151.5 t-171.5 56.5q-131 0 -200 -73q-34 -36 -53.5 -91.5t-19.5 -125.5h-178zM461 0v305h284v-305h-284z" />
<glyph unicode="@" d="M135 682q0 388 132 583t397 195q119 0 213.5 -45.5t154.5 -132.5q44 -63 63 -157q9 -47 14 -110.5t5 -146.5v-336q0 -28 13.5 -42.5t37.5 -14.5l14 2l19 4v-118l-42 -12l-32 -3q-75 0 -110 33.5t-35 107.5v13q-66 -91 -139.5 -134.5t-159.5 -43.5q-123 0 -193.5 87 t-70.5 236q0 141 62 224t190 114q42 10 142 23q142 17 142 73q0 107 -82 177.5t-213 70.5q-182 0 -274 -154t-92 -464q0 -329 84.5 -472t277.5 -143q35 0 49 1.5t40 6.5q46 8 87 25v-135q-41 -16 -92 -24.5t-108 -8.5q-249 0 -371.5 178t-122.5 543zM573 655 q0 -94 37.5 -144t108.5 -50q107 0 174.5 78.5t67.5 210.5v178q-41 -22 -125 -37q-80 -12 -109 -21q-81 -22 -117.5 -72.5t-36.5 -142.5z" />
<glyph unicode="A" d="M-6 0l518 1423h209l520 -1423h-192l-150 418h-567l-150 -418h-188zM397 592h439l-220 627z" />
<glyph unicode="B" d="M143 0v1421h506q203 0 309.5 -90.5t106.5 -265.5q0 -104 -45 -174t-148 -123q124 -31 190 -119t66 -223q0 -200 -118 -314q-59 -56 -141 -84t-191 -28h-535zM332 170h323q140 0 208.5 62.5t68.5 189.5q0 119 -72.5 178t-222.5 59h-305v-489zM332 831h278q135 0 202 53.5 t67 159.5q0 108 -61 157.5t-191 49.5h-295v-420z" />
<glyph unicode="C" d="M109 711q0 352 140 550.5t386 198.5q191 0 322 -125t165 -342h-194q-32 142 -109 219.5t-184 77.5q-152 0 -242 -154q-44 -77 -66 -182t-22 -243q0 -270 89 -424t241 -154q125 0 208 104.5t105 290.5h197q-27 -264 -163 -415.5t-347 -151.5q-245 0 -385.5 199.5 t-140.5 550.5z" />
<glyph unicode="D" d="M141 0v1421h473q267 0 398 -176t131 -534q0 -340 -138 -525.5t-391 -185.5h-473zM332 170h268q176 0 261 133.5t85 407.5q0 285 -81.5 412.5t-264.5 127.5h-268v-1081z" />
<glyph unicode="E" d="M186 0v1421h885v-172h-696v-426h635v-170h-635v-481h712v-172h-901z" />
<glyph unicode="F" d="M197 0v1421h925v-172h-735v-426h598v-170h-598v-653h-190z" />
<glyph unicode="G" d="M76 711q0 345 150 547t411 202q196 0 321 -123t152 -344h-203q-18 143 -92.5 223t-189.5 80q-168 0 -260.5 -151t-92.5 -428q0 -272 93 -426t249 -154q141 0 228.5 122.5t87.5 326.5v8h-320v174h518v-768h-102l-35 190q-70 -114 -167.5 -171.5t-221.5 -57.5 q-232 0 -379 207t-147 543z" />
<glyph unicode="H" d="M141 0v1421h191v-579h569v579h189v-1421h-189v668h-569v-668h-191z" />
<glyph unicode="I" d="M260 0v172h262v1077h-262v172h713v-172h-262v-1077h262v-172h-713z" />
<glyph unicode="J" d="M29 465l3 98l1 6h184v-6l-4 -96q0 -177 67.5 -255.5t219.5 -78.5q154 0 217 75t63 263v950h187v-958q0 -265 -110.5 -383.5t-358.5 -118.5q-247 0 -358 118.5t-111 385.5z" />
<glyph unicode="K" d="M172 0v1421h188v-657l609 657h250l-557 -598l573 -823h-229l-478 686l-168 -180v-506h-188z" />
<glyph unicode="L" d="M201 0v1421h188v-1249h725v-172h-913z" />
<glyph unicode="M" d="M104 0v1421h252l260 -1253l263 1253h249v-1421h-159v1290l-264 -1290h-177l-266 1290v-1290h-158z" />
<glyph unicode="N" d="M150 0v1421h223l538 -1165v1165h172v-1421h-219l-545 1165v-1165h-169z" />
<glyph unicode="O" d="M90 711q0 353 140 551t386 198t386.5 -199t140.5 -550q0 -350 -140.5 -550t-386.5 -200q-244 0 -385 199.5t-141 550.5zM287 711q0 -270 88.5 -424t240.5 -154q153 0 241.5 154.5t88.5 423.5q0 271 -88 425t-242 154q-151 0 -241 -154q-44 -77 -66 -182t-22 -243z" />
<glyph unicode="P" d="M184 0v1421h492q213 0 321.5 -104t108.5 -305q0 -107 -36 -189t-109 -141q-56 -44 -131 -63t-248 -19h-209v-600h-189zM373 774h237q166 0 232.5 54.5t66.5 183.5q0 127 -64.5 181t-219.5 54h-252v-473z" />
<glyph unicode="Q" d="M90 711q0 352 140 550.5t386 198.5t386.5 -199t140.5 -550q0 -160 -27.5 -281t-85.5 -223l168 -172l-108 -109l-156 162q-58 -61 -139.5 -94t-178.5 -33q-245 0 -385.5 199t-140.5 551zM287 711q0 -269 88.5 -423.5t240.5 -154.5q53 0 99 21t90 65l-160 168l111 105 l133 -140q27 78 42 168t15 191q0 271 -88 425t-242 154q-151 0 -241 -154q-44 -77 -66 -182t-22 -243z" />
<glyph unicode="R" d="M160 0v1421h475q210 0 320 -103t110 -302q0 -117 -47 -198t-141 -124q78 -24 112 -77q19 -30 31 -75.5t12 -108.5l15 -231q0 -39 4.5 -62.5t16 -52.5t42.5 -48v-39h-215q-12 20 -23 69q-5 27 -9.5 58t-4.5 66l-10 184q0 67 -15.5 112.5t-41.5 68.5q-48 42 -246 42h-195 v-600h-190zM350 774h219q166 0 232.5 54.5t66.5 183.5q0 127 -65.5 181t-220.5 54h-232v-473z" />
<glyph unicode="S" d="M106 469h187q0 -155 90.5 -245.5t245.5 -90.5q139 0 224 70.5t85 187.5q0 156 -300 239l-93 25q-240 68 -317.5 150.5t-77.5 230.5q0 189 125 305.5t327 116.5q230 0 357.5 -119.5t127.5 -337.5v-4h-186q0 67 -23 121.5t-64 95.5q-76 76 -206 76q-120 0 -193 -61 t-73 -164q0 -102 54 -150t288 -102q269 -63 355.5 -150.5t86.5 -250.5q0 -207 -136.5 -329t-368.5 -122q-236 0 -371 132q-69 69 -105 159q-39 98 -39 217z" />
<glyph unicode="T" d="M90 1249v172h1051v-172h-430v-1249h-189v1249h-432z" />
<glyph unicode="U" d="M127 541v880h188v-891q0 -202 74 -299.5t227 -97.5q150 0 224.5 99.5t74.5 297.5v891h191v-880q0 -295 -120.5 -437.5t-369.5 -142.5q-248 0 -368.5 141.5t-120.5 438.5z" />
<glyph unicode="V" d="M55 1423h195l366 -1210l357 1210h194l-448 -1423h-205z" />
<glyph unicode="W" d="M-16 1423h168l176 -1210l198 1210h179l202 -1210l176 1210h164l-250 -1423h-172l-211 1233l-204 -1233h-181z" />
<glyph unicode="X" d="M74 0l444 729l-420 694h215l308 -526l313 526h207l-422 -692l444 -731h-217l-332 575l-325 -575h-215z" />
<glyph unicode="Y" d="M45 1423h227l355 -673l350 673h213l-467 -848v-575h-191v563z" />
<glyph unicode="Z" d="M106 0v164l807 1085h-751v172h964v-161l-794 -1088h794v-172h-1020z" />
<glyph unicode="[" d="M416 -360v1781h399v-137h-219v-1507h219v-137h-399z" />
<glyph unicode="\" d="M297 1460h143l494 -1650h-141z" />
<glyph unicode="]" d="M369 -223h219v1507h-219v137h399v-1781h-399v137z" />
<glyph unicode="^" d="M260 971l3 18l9 18l279 353q9 12 25.5 18t39.5 6q22 0 40.5 -6.5t27.5 -17.5l277 -353l9 -18l3 -18q0 -21 -16 -37q-16 -14 -35 -14q-11 0 -16 2l-11 8l-279 278l-278 -278l-11 -8l-16 -2q-21 0 -36 14.5t-15 36.5z" />
<glyph unicode="_" d="M0 -340h1233v-143h-1233v143z" />
<glyph unicode="`" d="M356 1597h201l205 -348h-121z" />
<glyph unicode="a" d="M158 289q0 166 89 247.5t308 108.5l76 9q200 21 200 157q0 86 -56 127t-173 41q-118 0 -177.5 -50t-59.5 -149h-162v13q0 160 108 253t297 93q202 0 300 -81t98 -251v-569q0 -65 15 -87t52 -22l16 1l27 5v-139q-30 -9 -54 -12l-46 -4q-83 0 -126.5 39t-43.5 118v6 q-78 -87 -168.5 -131.5t-192.5 -44.5q-153 0 -240 85.5t-87 236.5zM338 305q0 -88 45 -134t133 -46q133 0 221 73t88 187v174q-67 -37 -228 -60q-20 -3 -44 -6t-44 -8q-94 -18 -132.5 -59t-38.5 -121z" />
<glyph unicode="b" d="M182 0v1470h180v-538q56 101 136 154t180 53q194 0 311 -159t117 -429q0 -269 -116.5 -429.5t-311.5 -160.5q-102 0 -180.5 52t-135.5 157v-170h-180zM365 551q0 -207 72 -317.5t210 -110.5q128 0 201.5 114t73.5 314q0 101 -18 178t-56 135q-72 113 -201 113 q-137 0 -209.5 -109t-72.5 -317z" />
<glyph unicode="c" d="M158 547q0 275 126 433.5t347 158.5q195 0 314 -110q62 -55 94 -128.5t32 -165.5h-178q0 57 -19 102t-56 80q-69 64 -187 64q-138 0 -213.5 -111.5t-75.5 -316.5q0 -210 74 -320t215 -110q110 0 182.5 71.5t87.5 198.5h172q0 -96 -34.5 -174.5t-99.5 -140.5 q-120 -117 -314 -117q-220 0 -343.5 155t-123.5 431z" />
<glyph unicode="d" d="M125 551q0 271 116.5 429.5t311.5 158.5q102 0 179 -50.5t138 -156.5v538h179v-1470h-181v170q-52 -103 -133 -157q-40 -26 -84 -39t-98 -13q-195 0 -311.5 159.5t-116.5 430.5zM309 551q0 -202 73.5 -315t201.5 -113q136 0 209 110.5t73 317.5t-72.5 316.5t-209.5 109.5 q-128 0 -201.5 -113.5t-73.5 -312.5z" />
<glyph unicode="e" d="M162 551q0 270 123 429t331 159q216 0 336.5 -147.5t120.5 -409.5l-1 -53l-1 -31h-721v-6q0 -172 75.5 -270.5t207.5 -98.5q91 0 153.5 50.5t87.5 141.5h179q-30 -162 -150.5 -258t-292.5 -96q-206 0 -327 158.5t-121 431.5zM350 649h535q0 156 -69 244t-193 88 q-122 0 -194 -87q-37 -45 -58 -106t-21 -139z" />
<glyph unicode="f" d="M113 909v154h329v100q0 159 96 233t300 74q10 0 37 -1t44 -1q41 0 113 -8v-155l-13 1l-140 7q-132 0 -194 -44.5t-62 -138.5v-67h409v-154h-409v-909h-181v909h-329z" />
<glyph unicode="g" d="M125 551q0 271 116.5 429.5t311.5 158.5q100 0 179.5 -53t144.5 -164v178h172v-1051q0 -250 -108.5 -361.5t-350.5 -111.5q-195 0 -306.5 83.5t-111.5 231.5v9h174q0 -84 63 -126t191 -42q145 0 211 65.5t66 214.5v156q-83 -118 -155 -162.5t-169 -44.5q-192 0 -310 159 t-118 431zM311 551q0 -202 72.5 -315t202.5 -113q138 0 212 111t74 317t-74 316t-212 110q-129 0 -202 -112q-35 -55 -54 -134t-19 -180z" />
<glyph unicode="h" d="M193 0v1470h180v-530q48 96 129.5 147.5t189.5 51.5q111 0 188.5 -37.5t120.5 -112.5q22 -38 35 -96q5 -25 8 -68t3 -102v-55v-668h-181v686q0 162 -45.5 226.5t-154.5 64.5q-138 0 -215.5 -90.5t-77.5 -251.5v-635h-180z" />
<glyph unicode="i" d="M195 0v152h368v757h-282v154h462v-911h373v-152h-921zM559 1266v204h191v-204h-191z" />
<glyph unicode="j" d="M264 -256l42 -4q66 -6 95 -6q118 0 156.5 38t38.5 167v970h-283v154h463v-1139q0 -197 -73 -274.5t-254 -77.5l-78 3l-106 7zM596 1266v204h180v-204h-180z" />
<glyph unicode="k" d="M217 0v1470h180v-866l498 496h227l-413 -406l403 -694h-203l-323 569l-189 -182v-387h-180z" />
<glyph unicode="l" d="M180 0v152h371v1167h-283v151h463v-1318h369v-152h-920z" />
<glyph unicode="m" d="M121 0v1100h160v-117q30 74 81.5 115t114.5 41q74 0 126.5 -41t76.5 -119q44 81 98 120.5t123 39.5q114 0 164.5 -85t50.5 -294v-760h-166v772q0 119 -23.5 169t-78.5 50q-69 0 -110.5 -68.5t-41.5 -187.5v-735h-155v772q0 119 -24.5 169t-80.5 50q-69 0 -109 -68 q-20 -34 -30 -79.5t-10 -108.5v-735h-166z" />
<glyph unicode="n" d="M193 0v1100h172v-168q53 100 135.5 153.5t191.5 53.5q111 0 188.5 -37.5t120.5 -112.5q22 -38 35 -96q5 -25 8 -68t3 -102v-55v-668h-181v686q0 162 -45.5 226.5t-154.5 64.5q-138 0 -215.5 -90.5t-77.5 -251.5v-635h-180z" />
<glyph unicode="o" d="M139 549q0 276 126 433t351 157q224 0 351 -155.5t127 -434.5q0 -277 -126 -432.5t-352 -155.5q-224 0 -350.5 155.5t-126.5 432.5zM324 551q0 -207 75.5 -318.5t216.5 -111.5q140 0 216.5 111.5t76.5 318.5t-75.5 317.5t-217.5 110.5q-140 0 -216 -110.5t-76 -317.5z " />
<glyph unicode="p" d="M182 -426v1526h180v-170q60 110 136 159.5t180 49.5q194 0 311 -159t117 -429q0 -269 -117 -429.5t-311 -160.5q-104 0 -176.5 47.5t-139.5 159.5v-594h-180zM365 551q0 -207 72 -317.5t210 -110.5q128 0 201.5 114t73.5 314q0 101 -18 178t-56 135q-72 113 -201 113 q-137 0 -209.5 -109t-72.5 -317z" />
<glyph unicode="q" d="M125 551q0 271 116.5 429.5t311.5 158.5q106 0 180.5 -49t134.5 -160v170h181v-1526h-179v594q-62 -111 -136.5 -159t-180.5 -48q-192 0 -310 159t-118 431zM309 551q0 -202 73.5 -315t201.5 -113q136 0 209 110.5t73 317.5t-72.5 316.5t-209.5 109.5 q-128 0 -201.5 -113.5t-73.5 -312.5z" />
<glyph unicode="r" d="M260 0v1100h164v-182q57 106 143.5 163.5t194.5 57.5q177 0 266 -95q45 -47 68.5 -118.5t23.5 -167.5h-182q0 107 -54.5 163t-158.5 56q-137 0 -211 -90t-74 -258v-629h-180z" />
<glyph unicode="s" d="M181 342h173q0 -53 20 -94t58 -72q70 -55 195 -55q117 0 185.5 48.5t68.5 133.5q0 61 -33.5 94t-134.5 60l-201 49q-172 42 -239.5 113.5t-67.5 199.5q0 145 108.5 232.5t296.5 87.5q190 0 304 -89.5t114 -238.5v-4h-176q0 40 -18 72.5t-51 57.5q-63 48 -173 48 q-111 0 -168 -41t-57 -119q0 -56 35 -88q36 -30 137 -55l174 -41q190 -43 260 -115t70 -202q0 -169 -119.5 -266t-331.5 -97q-103 0 -181 24t-134 74t-85 121t-29 162z" />
<glyph unicode="t" d="M123 909v154h311v321h180v-321h412v-154h-412v-520q0 -173 55.5 -223.5t200.5 -50.5l67 3l89 9v-155l-129 -8l-84 -3q-210 0 -294.5 81t-84.5 316v551h-311z" />
<glyph unicode="u" d="M186 377v55v668h181v-707q0 -143 47 -205.5t153 -62.5q139 0 216 89t77 251v635h180v-1100h-172v168q-54 -104 -135.5 -155.5t-191.5 -51.5q-112 0 -189.5 37.5t-120.5 112.5q-23 38 -35 95q-4 25 -7 70.5t-3 100.5z" />
<glyph unicode="v" d="M115 1100h188l315 -887l310 887h186l-401 -1100h-191z" />
<glyph unicode="w" d="M10 1100h172l183 -934l161 934h179l161 -934l183 934h174l-271 -1100h-172l-164 934l-163 -934h-172z" />
<glyph unicode="x" d="M113 0l385 565l-365 535h213l268 -400l269 400h209l-371 -533l393 -567h-217l-291 428l-282 -428h-211z" />
<glyph unicode="y" d="M111 1100h196l309 -905l316 905h192l-446 -1241q-61 -174 -131 -229.5t-201 -55.5h-15h-12q-45 0 -73 4q-22 0 -43.5 5t-30.5 7v174l93 -15l73 -5q62 0 98.5 21.5t55.5 70.5l36 103z" />
<glyph unicode="z" d="M178 0v137l641 811h-610v152h831v-139l-634 -809h663v-152h-891z" />
<glyph unicode="{" d="M266 457v149h39q135 0 190.5 60t55.5 206v232q0 222 74.5 289t292.5 67h47v-147h-37q-120 0 -162.5 -42.5t-42.5 -189.5v-225q0 -158 -44.5 -225.5t-158.5 -100.5q115 -30 159 -97.5t44 -227.5v-225q0 -143 42.5 -186.5t168.5 -43.5h31v-149h-47q-219 0 -293 68t-74 290 v229q0 148 -54.5 208.5t-191.5 60.5h-39z" />
<glyph unicode="|" d="M543 -483v2048h149v-2048h-149z" />
<glyph unicode="}" d="M266 -250h39q120 0 162.5 42.5t42.5 187.5v225q0 164 43.5 229.5t157.5 95.5q-113 30 -157 97t-44 229v225q0 143 -42 187.5t-163 44.5h-39v147h47q220 0 294.5 -67t74.5 -289v-232q0 -148 53.5 -208t184.5 -60l21 1l24 1v-149h-39q-134 0 -189 -59.5t-55 -209.5v-229 q0 -221 -75.5 -289.5t-293.5 -68.5h-47v149z" />
<glyph unicode="~" d="M133 586q0 54 87.5 108t191.5 54q71 0 209.5 -43t203.5 -43q66 0 137.5 35.5t88.5 37.5q24 0 36.5 -16t12.5 -45q0 -54 -88.5 -108t-190.5 -54q-69 0 -208.5 43t-204.5 43q-66 0 -138 -36t-88 -38q-24 0 -36.5 15.5t-12.5 46.5z" />
<glyph unicode="&#xa0;" />
<glyph unicode="&#xa1;" d="M475 1155v305h285v-305h-285zM514 0v416l47 583h105l49 -583v-416h-201z" />
<glyph unicode="&#xa2;" d="M106 547q0 274 141 433t386 159q18 0 36.5 -1t37.5 -4q17 0 36.5 -4t40.5 -10l62 172h102l-71 -198q115 -52 179 -146q33 -49 49.5 -100.5t16.5 -112.5l-178 1q0 35 -8.5 62.5t-25.5 56.5q-28 47 -89 83l-284 -803l11 -2q68 -10 93 -10q126 0 210.5 73t100.5 197h172 q0 -93 -37 -171t-107 -141q-135 -120 -339 -120q-43 0 -137 13l-25 3l-69 -196h-103l80 221q-138 78 -209.5 216.5t-71.5 328.5zM291 553q0 -70 9 -128t29 -107q39 -95 115 -152l287 803l-49 9l-47 3q-165 0 -254.5 -111.5t-89.5 -316.5z" />
<glyph unicode="&#xa3;" d="M143 625v114h158q-48 66 -76 142t-28 149q0 169 134 285.5t335 116.5q210 0 337 -113.5t127 -304.5v-25q0 -10 -2 -16h-182v16q0 133 -73 206t-207 73q-121 0 -198 -69.5t-77 -174.5q0 -75 85 -239l24 -46h325v-114h-274l15 -65q5 -27 5 -46q0 -81 -51 -170t-153 -184 q49 23 104 36t129 13q36 0 78 -8t97 -26q108 -34 143 -34q18 0 36.5 3t38.5 10q39 12 92 47l82 -135q-64 -52 -124.5 -76.5t-129.5 -24.5q-42 0 -78 7q-40 6 -96 28l-94 37q-28 10 -64 16t-73 6q-67 0 -132 -21t-124 -63l-98 140q125 99 186 190t61 176q0 18 -2 32.5 t-7.5 35t-12 38t-17.5 38.5h-219z" />
<glyph unicode="&#xa4;" d="M123 459l190 188q-40 55 -60 115t-20 123q0 36 4 62t16 60q19 57 60 113l-190 191l72 71l190 -190q50 40 110.5 61t127.5 21q65 0 124.5 -20.5t112.5 -61.5l189 190l71 -71l-190 -191q40 -55 60 -113t20 -122q0 -37 -4 -65t-16 -61q-19 -58 -60 -112l190 -188l-71 -72 l-189 191q-51 -41 -111.5 -61.5t-125.5 -20.5q-38 0 -65.5 4t-61.5 16q-61 20 -111 62l-190 -191zM336 885q0 -119 83.5 -203t203.5 -84q116 0 202 84.5t86 202.5q0 120 -85 204.5t-203 84.5t-202.5 -84.5t-84.5 -204.5z" />
<glyph unicode="&#xa5;" d="M16 551v108h457l-70 113h-387v111h320l-320 508h228l383 -656l385 656h207l-308 -508h308v-111h-373l-70 -113h443v-108h-500v-551h-184v551h-519z" />
<glyph unicode="&#xa6;" d="M555 -352v760h121v-760h-121zM555 674v758h121v-758h-121z" />
<glyph unicode="&#xa7;" d="M184 659q0 83 45 154.5t136 132.5q-46 39 -69.5 90t-23.5 113q0 137 93 224t241 87q160 0 254 -85t94 -232v-13l-172 1q0 40 -12.5 71.5t-38.5 58.5q-47 48 -125 48q-72 0 -114.5 -36.5t-42.5 -101.5q0 -50 32.5 -89.5t116.5 -84.5l248 -133q107 -57 155 -127t48 -174 q0 -87 -52 -164.5t-133 -109.5q49 -42 76 -98t27 -121q0 -138 -102 -228t-261 -90q-155 0 -251.5 90t-96.5 240v4h172v-10q0 -81 51 -124.5t142 -43.5q78 0 126 38.5t48 102.5q0 57 -43.5 103.5t-182.5 123.5l-182 99q-103 55 -153 125t-50 159zM358 713q0 -59 36 -104 t151 -113l229 -136q45 31 70.5 79.5t25.5 99.5q0 61 -33.5 105.5t-152.5 111.5l-223 127q-54 -37 -78.5 -78t-24.5 -92z" />
<glyph unicode="&#xa8;" d="M362 1307v211h183v-211h-183zM692 1307v211h182v-211h-182z" />
<glyph unicode="&#xa9;" d="M25 686q0 120 44 228t128 191t192 128t227 45q116 0 226 -45t191 -126t128 -194t47 -227q0 -118 -45.5 -225.5t-129 -193t-190.5 -130.5t-227 -45q-87 0 -170 24.5t-155 73.5q-126 83 -196 213t-70 283zM123 686q0 -96 38.5 -186t109 -161.5t159.5 -108.5q43 -17 91 -27 t95 -10q97 0 187.5 38t160 108t108 160.5t38.5 186.5q0 100 -37.5 190.5t-107 159t-162 106.5t-187.5 38q-97 0 -187 -37.5t-161 -108.5q-67 -67 -106 -160t-39 -188zM268 674q0 161 99.5 271t248.5 110q25 0 37 -1t35 -6t40 -9.5t40 -14.5q6 10 20 16.5t33 6.5 q36 0 48 -24.5t12 -121.5v-67q0 -38 -14 -53t-48 -15q-48 0 -68 81l-4 16q-7 32 -45 55.5t-88 23.5q-96 0 -151 -70t-55 -192q0 -113 58.5 -182.5t151.5 -69.5q66 0 137 42t79 44q27 0 43 -16t16 -41q0 -48 -89 -100t-192 -52q-147 0 -245.5 105.5t-98.5 263.5z" />
<glyph unicode="&#xaa;" d="M254 887q0 108 71 163.5t244 75.5l54 6q163 15 163 101q0 58 -44.5 87.5t-135.5 29.5q-92 0 -141 -36t-49 -104h-127v11q0 110 87 174.5t234 64.5q163 0 237.5 -55t74.5 -176v-375q0 -51 12 -63.5t41 -12.5h18q10 0 16 2l1 -96l-42 -9l-38 -3q-67 0 -99 29t-32 87 q-66 -63 -136 -93.5t-149 -30.5q-120 0 -190 59.5t-70 163.5zM281 424v108h686v-108h-686zM389 891q0 -56 38.5 -86.5t109.5 -30.5q107 0 178 51.5t71 130.5v111q-57 -27 -184 -41l-43.5 -4.5t-21.5 -3.5q-82 -13 -115 -41.5t-33 -85.5z" />
<glyph unicode="&#xab;" d="M250 440v219l321 267v-193l-213 -182l213 -184v-193zM659 440v219l324 267v-193l-215 -182l215 -184v-193z" />
<glyph unicode="&#xac;" d="M100 838q0 30 22.5 50.5t55.5 20.5h897q27 0 42.5 -9.5t15.5 -29.5v-440q0 -35 -22 -57.5t-54 -22.5q-31 0 -54 23q-22 25 -22 57v334h-803q-36 0 -57 20.5t-21 53.5z" />
<glyph unicode="&#xad;" d="M369 469v162h495v-162h-495z" />
<glyph unicode="&#xae;" d="M25 686q0 120 44 228t128 191t192 128t227 45q116 0 226 -45t191 -126t128 -194t47 -227q0 -118 -45.5 -225.5t-129 -193t-190.5 -130.5t-227 -45q-87 0 -170 24.5t-155 73.5q-126 83 -196 213t-70 283zM123 686q0 -96 38.5 -186t109 -161.5t159.5 -108.5q43 -17 91 -27 t95 -10q97 0 187.5 38t160 108t108 160.5t38.5 186.5q0 100 -37.5 190.5t-107 159t-162 106.5t-187.5 38q-97 0 -187 -37.5t-161 -108.5q-67 -67 -106 -160t-39 -188zM319 416q0 30 17.5 42.5t64.5 12.5h15v455h-15q-48 0 -65 11.5t-17 41.5q0 25 15 40t41 15h190 q148 0 217.5 -49.5t69.5 -153.5q0 -60 -33.5 -105.5t-91.5 -66.5l11 -12l14 -19l104 -157h8q36 0 53 -14q17 -12 17 -41q0 -24 -14.5 -40t-40.5 -16h-60q-21 0 -38 10q-15 11 -33 42l-105 157q-33 50 -49.5 60t-42.5 10h-19v-168h19q40 0 57 -14q19 -13 19 -41 q0 -30 -16.5 -43t-55.5 -13h-180q-24 0 -40 15t-16 41zM532 743h58q67 0 100 24t33 69t-31.5 67.5t-99.5 22.5h-60v-183z" />
<glyph unicode="&#xaf;" d="M348 1341v142h541v-142h-541z" />
<glyph unicode="&#xb0;" d="M328 1167q0 120 84.5 204.5t203.5 84.5t204 -85t85 -204q0 -116 -84 -201t-205 -85t-204.5 83.5t-83.5 202.5zM422 1169q0 -82 56.5 -139t137.5 -57t138 57.5t57 138.5q0 80 -56.5 136.5t-138.5 56.5q-78 0 -136 -56.5t-58 -136.5z" />
<glyph unicode="&#xb1;" d="M139 166v141h953v-141h-953zM139 801v139h406v352h141v-352h406v-139h-406v-355h-141v355h-406z" />
<glyph unicode="&#xb2;" d="M246 397v6q0 144 73.5 245.5t243.5 191.5l109 59q67 37 102 86.5t35 110.5q0 79 -51.5 127.5t-136.5 48.5q-96 0 -149.5 -58t-53.5 -163v-13h-148v19q0 156 93.5 249t252.5 93q157 0 252 -81.5t95 -215.5q0 -102 -52.5 -175.5t-173.5 -138.5l-75 -40 q-129 -69 -177.5 -114.5t-72.5 -103.5h551v-133h-717z" />
<glyph unicode="&#xb3;" d="M250 713v8h153v-21q0 -78 58.5 -132t148.5 -54q104 0 162.5 48.5t58.5 133.5q0 80 -56 124t-159 44l-46 -2q-16 0 -23 -2v123h22h45q87 0 134 37.5t47 107.5t-48.5 108t-138.5 38q-89 0 -137.5 -50t-48.5 -143v-6h-148v10q0 147 93.5 232.5t255.5 85.5q151 0 240 -72.5 t89 -193.5q0 -73 -35 -124t-100 -75q85 -25 129.5 -86.5t44.5 -153.5q0 -141 -104 -227t-279 -86q-163 0 -260.5 90t-97.5 238z" />
<glyph unicode="&#xb4;" d="M475 1249l205 348h201l-285 -348h-121z" />
<glyph unicode="&#xb5;" d="M68 -352l3 37l9 49l217 1052h-80q-29 0 -45 15t-16 43q0 39 23 59.5t67 20.5h174q26 0 37 -8q12 -6 12 -23l-1 -10l-1 -7l-117 -532l-12 -63l-2 -29q0 -66 39.5 -99.5t120.5 -33.5q121 0 221.5 78t124.5 192l94 465q8 44 25 57q20 13 63 13q33 0 50.5 -14t17.5 -40 l-1 -11l-2 -8l-153 -714h63q27 0 43.5 -14.5t16.5 -42.5q0 -40 -23 -60t-67 -20h-158q-25 0 -38 7q-9 7 -11 24l2 11l2 7l20 72q-77 -71 -161.5 -107.5t-175.5 -36.5q-54 0 -96 15.5t-72 46.5l-60 -334q-12 -67 -29 -91t-51 -24q-39 0 -56 14q-17 12 -17 44z" />
<glyph unicode="&#xb6;" d="M170 1122q0 156 108 253.5t285 97.5h500v-89h-121v-1384h-111v1384h-176v-1384h-112v776q-83 0 -151 25.5t-121 74.5q-101 95 -101 246z" />
<glyph unicode="&#xb8;" d="M397 -326q36 -9 69.5 -15.5t67 -12t62 -8.5t49.5 -3q61 0 90 20t29 62t-31 64t-94 22h-34q-18 0 -27 -2v199h77v-102h29q110 0 166.5 -45.5t56.5 -135.5t-65.5 -139t-186.5 -49q-48 0 -114 11t-144 34v100z" />
<glyph unicode="&#xb9;" d="M334 1112v100q142 0 211.5 46t83.5 145h110v-1006h-155v715h-250z" />
<glyph unicode="&#xba;" d="M258 1061q0 190 95 294.5t263 104.5q170 0 264.5 -105t94.5 -294t-95 -294t-264 -105q-166 0 -262 106t-96 293zM295 424v108h643v-108h-643zM393 1061q0 -137 58.5 -211t166.5 -74q106 0 164 74.5t58 210.5q0 138 -57.5 212.5t-164.5 74.5q-108 0 -166.5 -74.5 t-58.5 -212.5z" />
<glyph unicode="&#xbb;" d="M250 174v193l213 184l-213 182v193l323 -267v-219zM659 174v193l213 184l-213 182v193l324 -267v-219z" />
<glyph unicode="&#xbc;" d="M74 602l1085 264l27 -112l-1090 -269zM133 1411l1 86q139 0 209 38.5t85 123.5h111v-854h-142v606h-264zM492 -45v111l417 524h125v-535h137v-100h-137v-215h-139v215h-403zM612 55h283v367z" />
<glyph unicode="&#xbd;" d="M74 614l1085 265l27 -111l-1090 -268zM133 1411l1 86q139 0 209 38.5t85 123.5h111v-854h-142v606h-264zM547 -250q0 122 65 208.5t215 162.5l97 47q57 29 88.5 72.5t31.5 95.5q0 69 -46.5 109t-127.5 40q-80 0 -126 -49.5t-46 -136.5v-10h-129v16q0 132 84 211.5 t221 79.5q139 0 222.5 -69.5t83.5 -184.5q0 -87 -46 -148.5t-155 -117.5l-66 -35q-113 -56 -158.5 -98t-60.5 -93h486v-106h-633v6z" />
<glyph unicode="&#xbe;" d="M59 1069v12h136l1 -9l1 -9q0 -66 53 -112t137 -46q86 0 137 42t51 114q0 69 -48.5 105t-145.5 36h-9l-48 -2v107h59q82 0 121 31.5t39 97.5q0 53 -43 86q-21 16 -49 24t-66 8q-82 0 -126 -41t-44 -116v-15h-135v4q0 129 81.5 201t229.5 72q135 0 214 -61t79 -164 q0 -60 -30.5 -102.5t-90.5 -65.5q76 -21 116 -73.5t40 -129.5q0 -120 -93.5 -194t-248.5 -74q-144 0 -231 75t-87 199zM74 602l1085 264l27 -112l-1090 -269zM492 -45v111l417 524h125v-535h137v-100h-137v-215h-139v215h-403zM612 55h283v367z" />
<glyph unicode="&#xbf;" d="M176 358q0 88 37 162.5t115 143.5l84 73q78 70 103.5 123t25.5 129l-1 28l-1 19h178l1 -25l1 -26q0 -95 -36.5 -172.5t-121.5 -155.5l-80 -71q-58 -53 -85 -106t-27 -111q0 -96 64 -152.5t173 -56.5q131 0 200 72q34 37 53.5 92t19.5 126l178 1v-25q0 -203 -120.5 -314.5 t-338.5 -111.5q-190 0 -306 98.5t-116 259.5zM487 1155v305h283v-305h-283z" />
<glyph unicode="&#xc0;" d="M-6 0l518 1423h209l520 -1423h-192l-150 418h-567l-150 -418h-188zM356 1919h201l205 -348h-121zM397 592h439l-220 627z" />
<glyph unicode="&#xc1;" d="M-6 0l518 1423h209l520 -1423h-192l-150 418h-567l-150 -418h-188zM397 592h439l-220 627zM475 1571l205 348h201l-285 -348h-121z" />
<glyph unicode="&#xc2;" d="M-6 0l518 1423h209l520 -1423h-192l-150 418h-567l-150 -418h-188zM324 1571l196 348h197l194 -348h-120l-173 228l-174 -228h-120zM397 592h439l-220 627z" />
<glyph unicode="&#xc3;" d="M-6 0l518 1423h209l520 -1423h-192l-150 418h-567l-150 -418h-188zM326 1616q18 99 68 152t124 53q22 0 32 -2l28 -6l96 -29l28 -6l27 -2q34 0 55.5 16.5t36.5 53.5h88q-19 -100 -68.5 -152.5t-125.5 -52.5l-31 2l-35 8l-96 27l-26 6l-23 2q-30 0 -52.5 -17.5 t-37.5 -52.5h-88zM397 592h439l-220 627z" />
<glyph unicode="&#xc4;" d="M-6 0l518 1423h209l520 -1423h-192l-150 418h-567l-150 -418h-188zM362 1629v211h183v-211h-183zM397 592h439l-220 627zM692 1629v211h182v-211h-182z" />
<glyph unicode="&#xc5;" d="M-6 0l518 1423h209l520 -1423h-192l-150 418h-567l-150 -418h-188zM367 1720q0 105 72.5 178.5t178.5 73.5q105 0 178.5 -73t73.5 -179t-72.5 -180t-179.5 -74q-105 0 -178 74.5t-73 179.5zM397 592h439l-220 627zM483 1720q0 -57 39 -96t96 -39q55 0 95.5 39.5 t40.5 95.5q0 55 -40 95t-96 40t-95.5 -39.5t-39.5 -95.5z" />
<glyph unicode="&#xc6;" d="M-109 0l488 1423h881v-176h-517v-426h463v-166h-463v-477h523v-178h-715v426h-334l-149 -426h-177zM274 592h277v668h-47z" />
<glyph unicode="&#xc7;" d="M109 711q0 352 140 550.5t386 198.5q191 0 322 -125t165 -342h-194q-32 142 -109 219.5t-184 77.5q-152 0 -242 -154q-44 -77 -66 -182t-22 -243q0 -270 89 -424t241 -154q125 0 208 104.5t105 290.5h197q-27 -264 -163 -416q-67 -74 -147.5 -112t-179.5 -38v-64h29 q110 0 166.5 -45.5t56.5 -135.5t-65.5 -139t-186.5 -49q-48 0 -114 11t-144 34v100q36 -9 69.5 -15.5t67 -12t62 -8.5t49.5 -3q61 0 90 20t29 62t-31 64t-94 22h-34q-18 0 -27 -2v163q-205 21 -329 196q-140 200 -140 551z" />
<glyph unicode="&#xc8;" d="M186 0v1421h885v-172h-696v-426h635v-170h-635v-481h712v-172h-901zM356 1919h201l205 -348h-121z" />
<glyph unicode="&#xc9;" d="M186 0v1421h885v-172h-696v-426h635v-170h-635v-481h712v-172h-901zM475 1571l205 348h201l-285 -348h-121z" />
<glyph unicode="&#xca;" d="M186 0v1421h885v-172h-696v-426h635v-170h-635v-481h712v-172h-901zM324 1571l196 348h197l194 -348h-120l-173 228l-174 -228h-120z" />
<glyph unicode="&#xcb;" d="M186 0v1421h885v-172h-696v-426h635v-170h-635v-481h712v-172h-901zM362 1629v211h183v-211h-183zM692 1629v211h182v-211h-182z" />
<glyph unicode="&#xcc;" d="M260 0v172h262v1077h-262v172h713v-172h-262v-1077h262v-172h-713zM356 1919h201l205 -348h-121z" />
<glyph unicode="&#xcd;" d="M260 0v172h262v1077h-262v172h713v-172h-262v-1077h262v-172h-713zM475 1571l205 348h201l-285 -348h-121z" />
<glyph unicode="&#xce;" d="M260 0v172h262v1077h-262v172h713v-172h-262v-1077h262v-172h-713zM324 1571l196 348h197l194 -348h-120l-173 228l-174 -228h-120z" />
<glyph unicode="&#xcf;" d="M260 0v172h262v1077h-262v172h713v-172h-262v-1077h262v-172h-713zM362 1629v211h183v-211h-183zM692 1629v211h182v-211h-182z" />
<glyph unicode="&#xd0;" d="M76 711q0 345 150 547t411 202q196 0 321 -123t152 -344h-203q-18 143 -92.5 223t-189.5 80q-168 0 -260.5 -151t-92.5 -428q0 -272 93 -426t249 -154q141 0 228.5 122.5t87.5 326.5v8h-320v174h518v-768h-102l-35 190q-70 -114 -167.5 -171.5t-221.5 -57.5 q-232 0 -379 207t-147 543zM326 1885h108q0 -35 12.5 -61t37.5 -46q44 -33 134 -33t134 34q23 17 36 43.5t13 62.5h108q0 -70 -21 -124t-59 -89q-69 -66 -211 -66q-140 0 -211 67q-37 36 -59 89t-22 123z" />
<glyph unicode="&#xd1;" d="M150 0v1421h223l538 -1165v1165h172v-1421h-219l-545 1165v-1165h-169zM326 1616q18 99 68 152t124 53q22 0 32 -2l28 -6l96 -29l28 -6l27 -2q34 0 55.5 16.5t36.5 53.5h88q-19 -100 -68.5 -152.5t-125.5 -52.5l-31 2l-35 8l-96 27l-26 6l-23 2q-30 0 -52.5 -17.5 t-37.5 -52.5h-88z" />
<glyph unicode="&#xd2;" d="M90 711q0 353 140 551t386 198t386.5 -199t140.5 -550q0 -350 -140.5 -550t-386.5 -200q-244 0 -385 199.5t-141 550.5zM287 711q0 -270 88.5 -424t240.5 -154q153 0 241.5 154.5t88.5 423.5q0 271 -88 425t-242 154q-151 0 -241 -154q-44 -77 -66 -182t-22 -243z M356 1919h201l205 -348h-121z" />
<glyph unicode="&#xd3;" d="M90 711q0 353 140 551t386 198t386.5 -199t140.5 -550q0 -350 -140.5 -550t-386.5 -200q-244 0 -385 199.5t-141 550.5zM287 711q0 -270 88.5 -424t240.5 -154q153 0 241.5 154.5t88.5 423.5q0 271 -88 425t-242 154q-151 0 -241 -154q-44 -77 -66 -182t-22 -243z M475 1571l205 348h201l-285 -348h-121z" />
<glyph unicode="&#xd4;" d="M90 711q0 353 140 551t386 198t386.5 -199t140.5 -550q0 -350 -140.5 -550t-386.5 -200q-244 0 -385 199.5t-141 550.5zM287 711q0 -270 88.5 -424t240.5 -154q153 0 241.5 154.5t88.5 423.5q0 271 -88 425t-242 154q-151 0 -241 -154q-44 -77 -66 -182t-22 -243z M324 1571l196 348h197l194 -348h-120l-173 228l-174 -228h-120z" />
<glyph unicode="&#xd5;" d="M90 711q0 353 140 551t386 198t386.5 -199t140.5 -550q0 -350 -140.5 -550t-386.5 -200q-244 0 -385 199.5t-141 550.5zM287 711q0 -270 88.5 -424t240.5 -154q153 0 241.5 154.5t88.5 423.5q0 271 -88 425t-242 154q-151 0 -241 -154q-44 -77 -66 -182t-22 -243z M326 1616q18 99 68 152t124 53q22 0 32 -2l28 -6l96 -29l28 -6l27 -2q34 0 55.5 16.5t36.5 53.5h88q-19 -100 -68.5 -152.5t-125.5 -52.5l-31 2l-35 8l-96 27l-26 6l-23 2q-30 0 -52.5 -17.5t-37.5 -52.5h-88z" />
<glyph unicode="&#xd6;" d="M90 711q0 353 140 551t386 198t386.5 -199t140.5 -550q0 -350 -140.5 -550t-386.5 -200q-244 0 -385 199.5t-141 550.5zM287 711q0 -270 88.5 -424t240.5 -154q153 0 241.5 154.5t88.5 423.5q0 271 -88 425t-242 154q-151 0 -241 -154q-44 -77 -66 -182t-22 -243z M362 1629v211h183v-211h-183zM692 1629v211h182v-211h-182z" />
<glyph unicode="&#xd7;" d="M217 975q0 27 22 50q24 22 52 22q14 0 29 -8q15 -6 28 -19l266 -266l256 256q11 11 27 19q14 5 29 7q30 0 51.5 -22t21.5 -51q0 -14 -6.5 -28.5t-19.5 -27.5l-256 -256l264 -266q10 -10 20 -28q5 -12 7 -27q0 -29 -21 -53q-21 -21 -51 -21q-15 0 -31.5 6t-27.5 19 l-265 264l-256 -254q-10 -10 -28 -20q-14 -5 -29 -7q-31 0 -51 19q-19 21 -19 51q0 15 6 31.5t19 27.5l254 256l-264 266q-10 10 -20 28q-7 18 -7 32z" />
<glyph unicode="&#xd8;" d="M55 29l135 192q-50 104 -75 219t-25 271q0 353 140 551t386 198q104 0 192.5 -39t147.5 -112l109 161l113 -67l-142 -205q56 -102 81.5 -213.5t25.5 -257.5q0 -363 -139.5 -564.5t-387.5 -201.5q-104 0 -185.5 35t-158.5 115l-110 -156zM287 711q0 -86 9 -161.5 t30 -146.5l516 746q-32 65 -93 103t-133 38q-152 0 -240.5 -153.5t-88.5 -425.5zM385 274q43 -70 99 -107q57 -34 132 -34q153 0 241.5 156.5t88.5 431.5q0 83 -9.5 154.5t-31.5 138.5z" />
<glyph unicode="&#xd9;" d="M127 541v880h188v-891q0 -202 74 -299.5t227 -97.5q150 0 224.5 99.5t74.5 297.5v891h191v-880q0 -295 -120.5 -437.5t-369.5 -142.5q-248 0 -368.5 141.5t-120.5 438.5zM356 1919h201l205 -348h-121z" />
<glyph unicode="&#xda;" d="M127 541v880h188v-891q0 -202 74 -299.5t227 -97.5q150 0 224.5 99.5t74.5 297.5v891h191v-880q0 -295 -120.5 -437.5t-369.5 -142.5q-248 0 -368.5 141.5t-120.5 438.5zM475 1571l205 348h201l-285 -348h-121z" />
<glyph unicode="&#xdb;" d="M127 541v880h188v-891q0 -202 74 -299.5t227 -97.5q150 0 224.5 99.5t74.5 297.5v891h191v-880q0 -295 -120.5 -437.5t-369.5 -142.5q-248 0 -368.5 141.5t-120.5 438.5zM324 1571l196 348h197l194 -348h-120l-173 228l-174 -228h-120z" />
<glyph unicode="&#xdc;" d="M127 541v880h188v-891q0 -202 74 -299.5t227 -97.5q150 0 224.5 99.5t74.5 297.5v891h191v-880q0 -295 -120.5 -437.5t-369.5 -142.5q-248 0 -368.5 141.5t-120.5 438.5zM362 1629v211h183v-211h-183zM692 1629v211h182v-211h-182z" />
<glyph unicode="&#xdd;" d="M260 0v172h262v1077h-262v172h713v-172h-262v-1077h262v-172h-713zM522 1625v219h193v-219h-193z" />
<glyph unicode="&#xde;" d="M106 469h187q0 -155 90.5 -245.5t245.5 -90.5q139 0 224 70.5t85 187.5q0 156 -300 239l-93 25q-240 68 -317.5 150.5t-77.5 230.5q0 189 125 305.5t327 116.5q230 0 357.5 -119.5t127.5 -337.5v-4h-186q0 67 -23 121.5t-64 95.5q-76 76 -206 76q-120 0 -193 -61 t-73 -164q0 -102 54 -150t288 -102q269 -63 355.5 -150.5t86.5 -250.5q0 -207 -137 -329q-65 -59 -147.5 -90t-186.5 -31v-64h29q110 0 166.5 -45.5t56.5 -135.5t-65.5 -139t-186.5 -49q-48 0 -114 11t-144 34v100q36 -9 69.5 -15.5t67 -12t62 -8.5t49.5 -3q61 0 90 20 t29 62t-31 64t-94 22h-34q-18 0 -27 -2v161q-100 0 -181.5 34t-146.5 97q-69 69 -105 159q-39 98 -39 217z" />
<glyph unicode="&#xdf;" d="M205 0v1049q0 217 105 330.5t311 113.5q179 0 291 -102t112 -269q0 -112 -40 -187t-120 -114q105 -33 165.5 -129t60.5 -227q0 -220 -123.5 -360t-315.5 -140h-23q-18 3 -27.5 4t-29.5 4t-39 7v167l44 -9l40 -3q125 0 206 85.5t81 223.5q0 141 -80.5 210t-247.5 69h-30 v149h30q129 0 199 60t70 174q0 105 -60.5 167t-165.5 62q-122 0 -179.5 -75.5t-57.5 -237.5v-1022h-176z" />
<glyph unicode="&#xe0;" d="M158 289q0 166 89 247.5t308 108.5l76 9q200 21 200 157q0 86 -56 127t-173 41q-118 0 -177.5 -50t-59.5 -149h-162v13q0 160 108 253t297 93q202 0 300 -81t98 -251v-569q0 -65 15 -87t52 -22l16 1l27 5v-139q-30 -9 -54 -12l-46 -4q-83 0 -126.5 39t-43.5 118v6 q-78 -87 -168.5 -131.5t-192.5 -44.5q-153 0 -240 85.5t-87 236.5zM338 305q0 -88 45 -134t133 -46q133 0 221 73t88 187v174q-67 -37 -228 -60q-20 -3 -44 -6t-44 -8q-94 -18 -132.5 -59t-38.5 -121zM356 1597h201l205 -348h-121z" />
<glyph unicode="&#xe1;" d="M158 289q0 166 89 247.5t308 108.5l76 9q200 21 200 157q0 86 -56 127t-173 41q-118 0 -177.5 -50t-59.5 -149h-162v13q0 160 108 253t297 93q202 0 300 -81t98 -251v-569q0 -65 15 -87t52 -22l16 1l27 5v-139q-30 -9 -54 -12l-46 -4q-83 0 -126.5 39t-43.5 118v6 q-78 -87 -168.5 -131.5t-192.5 -44.5q-153 0 -240 85.5t-87 236.5zM338 305q0 -88 45 -134t133 -46q133 0 221 73t88 187v174q-67 -37 -228 -60q-20 -3 -44 -6t-44 -8q-94 -18 -132.5 -59t-38.5 -121zM475 1249l205 348h201l-285 -348h-121z" />
<glyph unicode="&#xe2;" d="M158 289q0 166 89 247.5t308 108.5l76 9q200 21 200 157q0 86 -56 127t-173 41q-118 0 -177.5 -50t-59.5 -149h-162v13q0 160 108 253t297 93q202 0 300 -81t98 -251v-569q0 -65 15 -87t52 -22l16 1l27 5v-139q-30 -9 -54 -12l-46 -4q-83 0 -126.5 39t-43.5 118v6 q-78 -87 -168.5 -131.5t-192.5 -44.5q-153 0 -240 85.5t-87 236.5zM324 1249l196 348h197l194 -348h-120l-173 228l-174 -228h-120zM338 305q0 -88 45 -134t133 -46q133 0 221 73t88 187v174q-67 -37 -228 -60q-20 -3 -44 -6t-44 -8q-94 -18 -132.5 -59t-38.5 -121z" />
<glyph unicode="&#xe3;" d="M158 289q0 166 89 247.5t308 108.5l76 9q200 21 200 157q0 86 -56 127t-173 41q-118 0 -177.5 -50t-59.5 -149h-162v13q0 160 108 253t297 93q202 0 300 -81t98 -251v-569q0 -65 15 -87t52 -22l16 1l27 5v-139q-30 -9 -54 -12l-46 -4q-83 0 -126.5 39t-43.5 118v6 q-78 -87 -168.5 -131.5t-192.5 -44.5q-153 0 -240 85.5t-87 236.5zM326 1294q18 99 68 152t124 53q22 0 32 -2l28 -6l96 -29l28 -6l27 -2q34 0 55.5 16.5t36.5 53.5h88q-19 -100 -68.5 -152.5t-125.5 -52.5l-31 2l-35 8l-96 27l-26 6l-23 2q-30 0 -52.5 -17.5t-37.5 -52.5 h-88zM338 305q0 -88 45 -134t133 -46q133 0 221 73t88 187v174q-67 -37 -228 -60q-20 -3 -44 -6t-44 -8q-94 -18 -132.5 -59t-38.5 -121z" />
<glyph unicode="&#xe4;" d="M158 289q0 166 89 247.5t308 108.5l76 9q200 21 200 157q0 86 -56 127t-173 41q-118 0 -177.5 -50t-59.5 -149h-162v13q0 160 108 253t297 93q202 0 300 -81t98 -251v-569q0 -65 15 -87t52 -22l16 1l27 5v-139q-30 -9 -54 -12l-46 -4q-83 0 -126.5 39t-43.5 118v6 q-78 -87 -168.5 -131.5t-192.5 -44.5q-153 0 -240 85.5t-87 236.5zM338 305q0 -88 45 -134t133 -46q133 0 221 73t88 187v174q-67 -37 -228 -60q-20 -3 -44 -6t-44 -8q-94 -18 -132.5 -59t-38.5 -121zM362 1307v211h183v-211h-183zM692 1307v211h182v-211h-182z" />
<glyph unicode="&#xe5;" d="M158 289q0 166 89 247.5t308 108.5l76 9q200 21 200 157q0 86 -56 127t-173 41q-118 0 -177.5 -50t-59.5 -149h-162v13q0 160 108 253t297 93q202 0 300 -81t98 -251v-569q0 -65 15 -87t52 -22l16 1l27 5v-139q-30 -9 -54 -12l-46 -4q-83 0 -126.5 39t-43.5 118v6 q-78 -87 -168.5 -131.5t-192.5 -44.5q-153 0 -240 85.5t-87 236.5zM338 305q0 -88 45 -134t133 -46q133 0 221 73t88 187v174q-67 -37 -228 -60q-20 -3 -44 -6t-44 -8q-94 -18 -132.5 -59t-38.5 -121zM367 1483q0 105 72.5 178.5t178.5 73.5q105 0 178.5 -73t73.5 -179 q0 -107 -73 -180.5t-179 -73.5q-105 0 -178 74t-73 180zM483 1483q0 -57 39 -96t96 -39q55 0 95.5 39.5t40.5 95.5q0 54 -40 94.5t-96 40.5t-95.5 -39.5t-39.5 -95.5z" />
<glyph unicode="&#xe6;" d="M-16 289q0 169 70 249t247 107l53 8q170 24 170 166q0 76 -45 118t-129 42t-133 -51t-49 -142v-6h-148v15q0 158 87 251t237 93q102 0 174 -36t105 -102q51 69 114 103.5t135 34.5q170 0 268.5 -148t98.5 -411l-1 -51l-1 -31h-555q0 -173 54.5 -274t148.5 -101 q64 0 110.5 50.5t63.5 141.5h164q-27 -167 -120.5 -260.5t-234.5 -93.5q-100 0 -177 61.5t-122 176.5q-57 -120 -134 -176t-183 -56q-127 0 -197.5 84.5t-70.5 237.5zM147 305q0 -90 31.5 -135t95.5 -45q96 0 160 73t64 187v174q-46 -36 -153 -57l-47.5 -9.5t-23.5 -7.5 q-65 -21 -96 -64.5t-31 -115.5zM682 649h383q0 162 -49 247t-144 85q-84 0 -135 -88q-26 -44 -40.5 -106t-14.5 -138z" />
<glyph unicode="&#xe7;" d="M158 547q0 275 126 433.5t347 158.5q195 0 314 -110q62 -55 94 -128.5t32 -165.5h-178q0 57 -19 102t-56 80q-69 64 -187 64q-138 0 -213.5 -111.5t-75.5 -316.5q0 -210 74 -320t215 -110q110 0 182.5 71.5t87.5 198.5h172q0 -96 -34.5 -174.5t-99.5 -140.5 q-58 -56 -128.5 -86t-155.5 -30v-64h29q110 0 166.5 -45.5t56.5 -135.5t-65.5 -139t-186.5 -49q-48 0 -114 11t-144 34v100q36 -9 69.5 -15.5t67 -12t62 -8.5t49.5 -3q61 0 90 20t29 62t-31 64t-94 22h-34q-18 0 -27 -2v162q-91 0 -165 40t-132 113q-123 155 -123 431z" />
<glyph unicode="&#xe8;" d="M162 551q0 270 123 429t331 159q216 0 336.5 -147.5t120.5 -409.5l-1 -53l-1 -31h-721v-6q0 -172 75.5 -270.5t207.5 -98.5q91 0 153.5 50.5t87.5 141.5h179q-30 -162 -150.5 -258t-292.5 -96q-206 0 -327 158.5t-121 431.5zM350 649h535q0 156 -69 244t-193 88 q-122 0 -194 -87q-37 -45 -58 -106t-21 -139zM356 1597h201l205 -348h-121z" />
<glyph unicode="&#xe9;" d="M162 551q0 270 123 429t331 159q216 0 336.5 -147.5t120.5 -409.5l-1 -53l-1 -31h-721v-6q0 -172 75.5 -270.5t207.5 -98.5q91 0 153.5 50.5t87.5 141.5h179q-30 -162 -150.5 -258t-292.5 -96q-206 0 -327 158.5t-121 431.5zM350 649h535q0 156 -69 244t-193 88 q-122 0 -194 -87q-37 -45 -58 -106t-21 -139zM475 1249l205 348h201l-285 -348h-121z" />
<glyph unicode="&#xea;" d="M162 551q0 270 123 429t331 159q216 0 336.5 -147.5t120.5 -409.5l-1 -53l-1 -31h-721v-6q0 -172 75.5 -270.5t207.5 -98.5q91 0 153.5 50.5t87.5 141.5h179q-30 -162 -150.5 -258t-292.5 -96q-206 0 -327 158.5t-121 431.5zM324 1249l196 348h197l194 -348h-120 l-173 228l-174 -228h-120zM350 649h535q0 156 -69 244t-193 88q-122 0 -194 -87q-37 -45 -58 -106t-21 -139z" />
<glyph unicode="&#xeb;" d="M162 551q0 270 123 429t331 159q216 0 336.5 -147.5t120.5 -409.5l-1 -53l-1 -31h-721v-6q0 -172 75.5 -270.5t207.5 -98.5q91 0 153.5 50.5t87.5 141.5h179q-30 -162 -150.5 -258t-292.5 -96q-206 0 -327 158.5t-121 431.5zM350 649h535q0 156 -69 244t-193 88 q-122 0 -194 -87q-37 -45 -58 -106t-21 -139zM362 1307v211h183v-211h-183zM692 1307v211h182v-211h-182z" />
<glyph unicode="&#xec;" d="M195 0v152h368v757h-282v154h462v-911h373v-152h-921zM356 1597h201l205 -348h-121z" />
<glyph unicode="&#xed;" d="M195 0v152h368v757h-282v154h462v-911h373v-152h-921zM475 1249l205 348h201l-285 -348h-121z" />
<glyph unicode="&#xee;" d="M195 0v152h368v757h-282v154h462v-911h373v-152h-921zM324 1249l196 348h197l194 -348h-120l-173 228l-174 -228h-120z" />
<glyph unicode="&#xef;" d="M195 0v152h368v757h-282v154h462v-911h373v-152h-921zM362 1307v211h183v-211h-183zM692 1307v211h182v-211h-182z" />
<glyph unicode="&#xf0;" d="M125 551q0 271 116.5 429.5t311.5 158.5q100 0 179.5 -53t144.5 -164v178h172v-1051q0 -250 -108.5 -361.5t-350.5 -111.5q-195 0 -306.5 83.5t-111.5 231.5v9h174q0 -84 63 -126t191 -42q145 0 211 65.5t66 214.5v156q-83 -118 -155 -162.5t-169 -44.5q-192 0 -310 159 t-118 431zM311 551q0 -202 72.5 -315t202.5 -113q138 0 212 111t74 317t-74 316t-212 110q-129 0 -202 -112q-35 -55 -54 -134t-19 -180zM326 1563h108q0 -35 12.5 -61t37.5 -46q44 -33 134 -33t134 34q23 17 36 43.5t13 62.5h108q0 -70 -21 -124t-59 -89q-69 -66 -211 -66 q-140 0 -211 67q-37 36 -59 89t-22 123z" />
<glyph unicode="&#xf1;" d="M193 0v1100h172v-168q53 100 135.5 153.5t191.5 53.5q111 0 188.5 -37.5t120.5 -112.5q22 -38 35 -96q5 -25 8 -68t3 -102v-55v-668h-181v686q0 162 -45.5 226.5t-154.5 64.5q-138 0 -215.5 -90.5t-77.5 -251.5v-635h-180zM326 1294q18 99 68 152t124 53q22 0 32 -2 l28 -6l96 -29l28 -6l27 -2q34 0 55.5 16.5t36.5 53.5h88q-19 -100 -68.5 -152.5t-125.5 -52.5l-31 2l-35 8l-96 27l-26 6l-23 2q-30 0 -52.5 -17.5t-37.5 -52.5h-88z" />
<glyph unicode="&#xf2;" d="M139 549q0 276 126 433t351 157q224 0 351 -155.5t127 -434.5q0 -277 -126 -432.5t-352 -155.5q-224 0 -350.5 155.5t-126.5 432.5zM324 551q0 -207 75.5 -318.5t216.5 -111.5q140 0 216.5 111.5t76.5 318.5t-75.5 317.5t-217.5 110.5q-140 0 -216 -110.5t-76 -317.5z M356 1597h201l205 -348h-121z" />
<glyph unicode="&#xf3;" d="M139 549q0 276 126 433t351 157q224 0 351 -155.5t127 -434.5q0 -277 -126 -432.5t-352 -155.5q-224 0 -350.5 155.5t-126.5 432.5zM324 551q0 -207 75.5 -318.5t216.5 -111.5q140 0 216.5 111.5t76.5 318.5t-75.5 317.5t-217.5 110.5q-140 0 -216 -110.5t-76 -317.5z M475 1249l205 348h201l-285 -348h-121z" />
<glyph unicode="&#xf4;" d="M139 549q0 276 126 433t351 157q224 0 351 -155.5t127 -434.5q0 -277 -126 -432.5t-352 -155.5q-224 0 -350.5 155.5t-126.5 432.5zM324 551q0 -207 75.5 -318.5t216.5 -111.5q140 0 216.5 111.5t76.5 318.5t-75.5 317.5t-217.5 110.5q-140 0 -216 -110.5t-76 -317.5z M324 1249l196 348h197l194 -348h-120l-173 228l-174 -228h-120z" />
<glyph unicode="&#xf5;" d="M139 549q0 276 126 433t351 157q224 0 351 -155.5t127 -434.5q0 -277 -126 -432.5t-352 -155.5q-224 0 -350.5 155.5t-126.5 432.5zM324 551q0 -207 75.5 -318.5t216.5 -111.5q140 0 216.5 111.5t76.5 318.5t-75.5 317.5t-217.5 110.5q-140 0 -216 -110.5t-76 -317.5z M326 1294q18 99 68 152t124 53q22 0 32 -2l28 -6l96 -29l28 -6l27 -2q34 0 55.5 16.5t36.5 53.5h88q-19 -100 -68.5 -152.5t-125.5 -52.5l-31 2l-35 8l-96 27l-26 6l-23 2q-30 0 -52.5 -17.5t-37.5 -52.5h-88z" />
<glyph unicode="&#xf6;" d="M139 549q0 276 126 433t351 157q224 0 351 -155.5t127 -434.5q0 -277 -126 -432.5t-352 -155.5q-224 0 -350.5 155.5t-126.5 432.5zM324 551q0 -207 75.5 -318.5t216.5 -111.5q140 0 216.5 111.5t76.5 318.5t-75.5 317.5t-217.5 110.5q-140 0 -216 -110.5t-76 -317.5z M362 1307v211h183v-211h-183zM692 1307v211h182v-211h-182z" />
<glyph unicode="&#xf7;" d="M104 631q0 35 16.5 54.5t47.5 19.5h895q30 0 46.5 -19.5t16.5 -54.5q0 -37 -16.5 -55.5t-46.5 -18.5h-895q-30 0 -48 18q-16 19 -16 56zM506 315q0 47 32.5 80t77.5 33t78 -33t33 -80q0 -46 -32 -78t-79 -32q-46 0 -78 32t-32 78zM506 944q0 47 32.5 80t77.5 33t78 -33.5 t33 -79.5q0 -44 -32.5 -78.5t-78.5 -34.5q-45 0 -77.5 33.5t-32.5 79.5z" />
<glyph unicode="&#xf8;" d="M100 18l129 158q-44 70 -67 164.5t-23 208.5q0 276 126 433t351 157q109 0 184 -30.5t130 -94.5l112 133l84 -72l-122 -149q43 -61 66.5 -157.5t23.5 -219.5q0 -278 -126.5 -433t-351.5 -155q-98 0 -172.5 30t-138.5 97l-127 -149zM324 551q0 -67 6.5 -121t21.5 -104 l467 555q-29 44 -84.5 71t-118.5 27q-140 0 -216 -111t-76 -317zM414 221q33 -48 85.5 -74t116.5 -26q144 0 218.5 115t74.5 342q0 66 -9 111q-7 45 -28 83z" />
<glyph unicode="&#xf9;" d="M186 377v55v668h181v-707q0 -143 47 -205.5t153 -62.5q139 0 216 89t77 251v635h180v-1100h-172v168q-54 -104 -135.5 -155.5t-191.5 -51.5q-112 0 -189.5 37.5t-120.5 112.5q-23 38 -35 95q-4 25 -7 70.5t-3 100.5zM356 1597h201l205 -348h-121z" />
<glyph unicode="&#xfa;" d="M186 377v55v668h181v-707q0 -143 47 -205.5t153 -62.5q139 0 216 89t77 251v635h180v-1100h-172v168q-54 -104 -135.5 -155.5t-191.5 -51.5q-112 0 -189.5 37.5t-120.5 112.5q-23 38 -35 95q-4 25 -7 70.5t-3 100.5zM475 1249l205 348h201l-285 -348h-121z" />
<glyph unicode="&#xfb;" d="M186 377v55v668h181v-707q0 -143 47 -205.5t153 -62.5q139 0 216 89t77 251v635h180v-1100h-172v168q-54 -104 -135.5 -155.5t-191.5 -51.5q-112 0 -189.5 37.5t-120.5 112.5q-23 38 -35 95q-4 25 -7 70.5t-3 100.5zM324 1249l196 348h197l194 -348h-120l-173 228 l-174 -228h-120z" />
<glyph unicode="&#xfc;" d="M186 377v55v668h181v-707q0 -143 47 -205.5t153 -62.5q139 0 216 89t77 251v635h180v-1100h-172v168q-54 -104 -135.5 -155.5t-191.5 -51.5q-112 0 -189.5 37.5t-120.5 112.5q-23 38 -35 95q-4 25 -7 70.5t-3 100.5zM362 1307v211h183v-211h-183zM692 1307v211h182v-211 h-182z" />
<glyph unicode="&#xfd;" d="M195 0v152h368v757h-282v154h462v-911h373v-152h-921z" />
<glyph unicode="&#xfe;" d="M181 342h173q0 -53 20 -94t58 -72q70 -55 195 -55q117 0 185.5 48.5t68.5 133.5q0 61 -33.5 94t-134.5 60l-201 49q-172 42 -239.5 113.5t-67.5 199.5q0 145 108.5 232.5t296.5 87.5q190 0 304 -89.5t114 -238.5v-4h-176q0 40 -18 72.5t-51 57.5q-63 48 -173 48 q-111 0 -168 -41t-57 -119q0 -56 35 -88q36 -30 137 -55l174 -41q190 -43 260 -115t70 -202q0 -169 -120 -267q-55 -45 -126.5 -70t-159.5 -25v-64h29q110 0 166.5 -45.5t56.5 -135.5t-65.5 -139t-186.5 -49q-48 0 -114 11t-144 34v100q36 -9 69.5 -15.5t67 -12t62 -8.5 t49.5 -3q61 0 90 20t29 62t-31 64t-94 22h-34q-18 0 -27 -2v161q-90 0 -160 24.5t-124.5 73.5t-83.5 120t-29 162z" />
<glyph unicode="&#xff;" d="M111 1100h196l309 -905l316 905h192l-446 -1241q-61 -174 -131 -229.5t-201 -55.5h-15h-12q-45 0 -73 4q-22 0 -43.5 5t-30.5 7v174l93 -15l73 -5q62 0 98.5 21.5t55.5 70.5l36 103zM362 1307v211h183v-211h-183zM692 1307v211h182v-211h-182z" />
<glyph unicode="&#x152;" d="M8 725q0 350 108 544.5t302 194.5q89 0 150.5 -27.5t95.5 -80.5v65h634v-174h-485v-422h434v-172h-434v-477h485v-176h-634v70q-39 -51 -98.5 -78t-133.5 -27q-200 0 -312 198t-112 562zM201 725q0 -302 58.5 -448t178.5 -146q60 0 100 34t83 124v862q-41 79 -84.5 114 t-100.5 35q-117 0 -176 -144.5t-59 -430.5z" />
<glyph unicode="&#x153;" d="M-49 549q0 275 102.5 432.5t280.5 157.5q87 0 156.5 -39.5t127.5 -122.5q67 81 138.5 121.5t148.5 40.5q170 0 268.5 -148t98.5 -411l-1 -50l-1 -32h-555q0 -173 54.5 -274t148.5 -101q64 0 109 49.5t65 142.5h163q-24 -164 -120 -259t-236 -95q-80 0 -147.5 41.5 t-128.5 126.5q-49 -84 -120.5 -126t-168.5 -42q-181 0 -282 156t-101 432zM121 551q0 -205 55.5 -317.5t155.5 -112.5t155.5 112t55.5 318q0 207 -54.5 317.5t-156.5 110.5q-100 0 -155.5 -112t-55.5 -316zM715 649h383q0 162 -49 247t-144 85q-84 0 -136 -88 q-25 -44 -39.5 -106t-14.5 -138z" />
<glyph unicode="&#x178;" d="M45 1423h227l355 -673l350 673h213l-467 -848v-575h-191v563zM362 1629v211h183v-211h-183zM692 1629v211h182v-211h-182z" />
<glyph unicode="&#x2c6;" d="M324 1249l196 348h197l194 -348h-120l-173 228l-174 -228h-120z" />
<glyph unicode="&#x2dc;" d="M326 1294q18 99 68 152t124 53q22 0 32 -2l28 -6l96 -29l28 -6l27 -2q34 0 55.5 16.5t36.5 53.5h88q-19 -100 -68.5 -152.5t-125.5 -52.5l-31 2l-35 8l-96 27l-26 6l-23 2q-30 0 -52.5 -17.5t-37.5 -52.5h-88z" />
<glyph unicode="&#x2000;" horiz-adv-x="986" />
<glyph unicode="&#x2001;" horiz-adv-x="1972" />
<glyph unicode="&#x2002;" horiz-adv-x="986" />
<glyph unicode="&#x2003;" horiz-adv-x="1972" />
<glyph unicode="&#x2004;" horiz-adv-x="657" />
<glyph unicode="&#x2005;" horiz-adv-x="493" />
<glyph unicode="&#x2006;" horiz-adv-x="328" />
<glyph unicode="&#x2007;" horiz-adv-x="328" />
<glyph unicode="&#x2008;" horiz-adv-x="246" />
<glyph unicode="&#x2009;" horiz-adv-x="394" />
<glyph unicode="&#x200a;" horiz-adv-x="109" />
<glyph unicode="&#x2010;" d="M369 469v162h495v-162h-495z" />
<glyph unicode="&#x2011;" d="M369 469v162h495v-162h-495z" />
<glyph unicode="&#x2012;" d="M369 469v162h495v-162h-495z" />
<glyph unicode="&#x2013;" d="M0 479v142h1233v-142h-1233z" />
<glyph unicode="&#x2014;" d="M0 479v142h1233v-142h-1233z" />
<glyph unicode="&#x2018;" d="M498 862v273q0 151 70 234q35 43 87 67t117 24v-114q-82 -10 -118 -56t-36 -141v-31h115v-256h-235z" />
<glyph unicode="&#x2019;" d="M461 825v115q84 10 118.5 54.5t34.5 140.5v32h-114v254h235v-272q0 -151 -70 -234q-36 -42 -87.5 -66t-116.5 -24z" />
<glyph unicode="&#x201a;" d="M479 -227q83 9 118.5 53.5t35.5 140.5v33h-115v254h236v-272q0 -152 -71 -235q-36 -43 -87 -67t-117 -24v117z" />
<glyph unicode="&#x201c;" d="M287 862v273q0 151 70 234q35 43 87 67t117 24v-114q-85 -11 -120 -56.5t-35 -140.5v-31h114v-256h-233zM709 862v273q0 151 70 234q35 43 87 67t117 24v-114q-82 -10 -118 -56t-36 -141v-31h115v-256h-235z" />
<glyph unicode="&#x201d;" d="M270 825v115q83 10 118.5 54.5t35.5 140.5v32h-115v254h236v-272q0 -151 -70 -234q-36 -42 -87.5 -66t-117.5 -24zM694 825v115q83 10 118.5 54.5t35.5 140.5v32h-115v254h236v-272q0 -151 -70 -234q-36 -42 -87.5 -66t-117.5 -24z" />
<glyph unicode="&#x201e;" d="M260 -227q84 9 120 54t36 140v33h-115v254h234v-272q0 -152 -71 -235q-36 -43 -87 -67t-117 -24v117zM684 -227q83 9 118.5 53.5t35.5 140.5v33h-115v254h235v-272q0 -152 -70 -235q-36 -43 -87 -67t-117 -24v117z" />
<glyph unicode="&#x2022;" d="M457 684q0 67 46.5 114.5t112.5 47.5q65 0 112.5 -48.5t47.5 -113.5q0 -66 -47 -113t-113 -47t-112.5 47t-46.5 113z" />
<glyph unicode="&#x2026;" d="M63 102q0 58 41 99t99 41t99.5 -41t41.5 -99q0 -59 -41 -100t-100 -41t-99.5 41t-40.5 100zM475 102q0 58 41 99t98 41q58 0 100 -41t42 -99q0 -59 -41 -100t-101 -41q-58 0 -98.5 41t-40.5 100zM887 102q0 58 40.5 99t98.5 41t99.5 -41t41.5 -99q0 -59 -41 -100 t-100 -41q-58 0 -98.5 41t-40.5 100z" />
<glyph unicode="&#x202f;" horiz-adv-x="394" />
<glyph unicode="&#x2039;" d="M455 440v219l323 267v-193l-213 -182l213 -184v-193z" />
<glyph unicode="&#x203a;" d="M455 174v193l213 184l-213 182v193l323 -267v-219z" />
<glyph unicode="&#x205f;" horiz-adv-x="493" />
<glyph unicode="&#x2122;" d="M117 1053v10l4 145q0 25 14.5 39.5t38.5 14.5h338q23 0 38 -15q7 -7 11 -16t4 -22l6 -146v-27q0 -20 -14.5 -35.5t-36.5 -15.5q-26 0 -40 15q-6 8 -9.5 22t-3.5 36l-4 93h-66v-350h37q40 0 55 -13t15 -43q0 -22 -14.5 -38.5t-36.5 -16.5h-220q-20 0 -37 15q-14 16 -14 40 q0 29 15.5 42.5t56.5 13.5h35v350h-66l-2 -93q0 -41 -13 -57t-42 -16q-26 0 -37.5 15.5t-11.5 52.5zM602 745q0 26 11.5 38.5t39.5 17.5l10 352q-20 4 -31 17.5t-11 35.5q0 25 13.5 39.5t35.5 14.5h63q27 0 44.5 -12.5t23.5 -35.5l59 -219l62 219q6 24 22.5 36t42.5 12h66 q20 0 34.5 -15.5t14.5 -38.5q0 -20 -11 -33.5t-34 -19.5l10 -352q27 -3 40 -16.5t13 -39.5q0 -23 -14.5 -39t-36.5 -16h-108q-33 0 -49.5 14t-16.5 41t16.5 41.5t49.5 14.5h8v282l-51 -188q-9 -26 -22 -37.5t-36 -11.5q-24 0 -37 11t-22 38l-51 188v-282h8q36 0 51.5 -13.5 t15.5 -42.5q0 -26 -16 -40.5t-47 -14.5h-109q-22 0 -36.5 15.5t-14.5 39.5z" />
<glyph unicode="&#xe000;" horiz-adv-x="1100" d="M0 0v1100h1100v-1100h-1100z" />
</font>
</defs>
</svg>
