<?xml version="1.0" encoding="UTF-8" standalone="no"?>
<!-- Created with Inkscape (http://www.inkscape.org/) -->

<svg
   xmlns:dc="http://purl.org/dc/elements/1.1/"
   xmlns:cc="http://creativecommons.org/ns#"
   xmlns:rdf="http://www.w3.org/1999/02/22-rdf-syntax-ns#"
   xmlns:svg="http://www.w3.org/2000/svg"
   xmlns="http://www.w3.org/2000/svg"
   xmlns:inkscape="http://www.inkscape.org/namespaces/inkscape"
   version="1.1"
   width="230.52499"
   height="37.1875"
   id="svg2"
   xml:space="preserve"><metadata
     id="metadata8"><rdf:RDF><cc:Work
         rdf:about=""><dc:format>image/svg+xml</dc:format><dc:type
           rdf:resource="http://purl.org/dc/dcmitype/StillImage" /></cc:Work></rdf:RDF></metadata><defs
     id="defs6" /><g
     transform="matrix(1.25,0,0,-1.25,0,37.1875)"
     id="g10"><g
       transform="scale(0.1,0.1)"
       id="g12"><path
         d="m 1668.32,168.215 0,89.859 134.88,0 0,-89.859 -134.88,0 z m 88.8,-37.356 83.39,0 0,1.575 0.03,0 0,157.613 -0.05,0 0.02,5.363 -213.67,0 0,-293.33969 41.48,0 0,128.78869 38.59,0 87.12,-128.78869 50.2,0 -87.11,128.78869"
         inkscape:connector-curvature="0"
         id="path14"
         style="fill:#ffffff;fill-opacity:1;fill-rule:nonzero;stroke:none" /><path
         d="m 1367.51,0 210.37,0 0,37.8711 -168.3,0 0,130.4259 168.3,0 0,37.871 -168.3,0 0,53.457 168.3,0 0,37.859 -210.37,0 0,-297.484"
         inkscape:connector-curvature="0"
         id="path16"
         style="fill:#ffffff;fill-opacity:1;fill-rule:nonzero;stroke:none" /><path
         d="m 1163.42,297.484 -42.07,0 0,-297.4644688 199.85,0 0,37.8515688 -157.78,0 0,50.1875 157.78,0 0,37.8864 -157.78,0 0,171.539"
         inkscape:connector-curvature="0"
         id="path18"
         style="fill:#ffffff;fill-opacity:1;fill-rule:nonzero;stroke:none" /><path
         d="m 1075.5,297.496 -53.87,0 -131.696,-144.32 0,144.32 -42.102,0 0,-297.496 42.102,0 0,92.1484 39.539,43.7696 L 1028.34,0 1079.29,0 957.266,166.621 1075.5,297.496"
         inkscape:connector-curvature="0"
         id="path20"
         style="fill:#ffffff;fill-opacity:1;fill-rule:nonzero;stroke:none" /><path
         d="m 412.355,0 42.0703,0 0,297.496 -42.0703,0 0,-297.496 z"
         inkscape:connector-curvature="0"
         id="path22"
         style="fill:#ffffff;fill-opacity:1;fill-rule:nonzero;stroke:none" /><path
         d="m 572.258,171.527 0,77.243 148.804,-122.786 0.137,-78.1129 -148.941,123.6559 z m 189.722,-31.586 -0.222,0.188 -0.266,157.367 -40.722,0 0.214,-123.523 -148.726,123.496 0,0.027 -42.09,0 0,-139.922 -0.023,0 0.023,-0.031 0,-157.543 42.09,0 0,122.852 L 721.277,0 l 40.703,0 -0.015,14.0039 0.015,0.0117 -0.015,0.0078 -0.207,125.8356 0.222,0.082"
         inkscape:connector-curvature="0"
         id="path24"
         style="fill:#ffffff;fill-opacity:1;fill-rule:nonzero;stroke:none" /><path
         d="m 264.27,60.1562 -61.477,237.3278 -44.172,0 L 93.3906,57.6562 43.3398,297.484 0,297.484 67.3242,0 113.621,0 180.496,236.059 244.055,0 l 46.289,0 67.324,297.484 -43.773,0 L 264.27,60.1562"
         inkscape:connector-curvature="0"
         id="path26"
         style="fill:#ffffff;fill-opacity:1;fill-rule:nonzero;stroke:none" /></g></g></svg>